<svg width="50" height="50" viewBox="0 0 50 50" fill="none" xmlns="http://www.w3.org/2000/svg">
<mask id="mask0_706_19" style="mask-type:alpha" maskUnits="userSpaceOnUse" x="0" y="0" width="50" height="50">
<rect width="50" height="50" fill="#D9D9D9"/>
</mask>
<g mask="url(#mask0_706_19)">
<path d="M10.4167 43.75V10.4167C10.4167 9.27083 10.8251 8.28958 11.6417 7.47292C12.457 6.65764 13.4376 6.25 14.5834 6.25H27.0834C27.0834 7.04861 27.0834 7.74306 27.0834 8.33333C27.0834 8.92361 27.0834 9.61806 27.0834 10.4167H14.5834V37.3958L25.0001 32.9167L35.4167 37.3958V22.9167C36.2154 22.9167 36.9098 22.9167 37.5001 22.9167C38.0904 22.9167 38.7848 22.9167 39.5834 22.9167V43.75L25.0001 37.5L10.4167 43.75ZM35.4167 18.75V14.5833H31.2501V10.4167H35.4167V6.25H39.5834V10.4167H43.7501V14.5833H39.5834V18.75H35.4167Z" fill="black"/>
</g>
</svg>
