<svg width="51" height="51" viewBox="0 0 51 51" fill="none" xmlns="http://www.w3.org/2000/svg">
<mask id="mask0_706_25" style="mask-type:alpha" maskUnits="userSpaceOnUse" x="0" y="0" width="51" height="51">
<rect x="0.875488" y="0.69104" width="50" height="50" fill="#D9D9D9"/>
</mask>
<g mask="url(#mask0_706_25)">
<path d="M38.0109 19.441L32.1254 13.5556L35.0421 10.5869L38.0109 13.5556L45.3546 6.15979L48.3234 9.12854L38.0109 19.441ZM11.2921 44.441V11.1077C11.2921 9.96187 11.7004 8.98062 12.5171 8.16396C13.3324 7.34868 14.3129 6.94104 15.4588 6.94104H27.9588C27.9588 7.73965 27.9588 8.4341 27.9588 9.02437C27.9588 9.61465 27.9588 10.3091 27.9588 11.1077H15.4588V38.0869L25.8754 33.6077L36.2921 38.0869V23.6077C37.0907 23.6077 37.7852 23.6077 38.3754 23.6077C38.9657 23.6077 39.6602 23.6077 40.4588 23.6077V44.441L25.8754 38.191L11.2921 44.441Z" fill="white"/>
</g>
</svg>
